<?xml version="1.0" encoding="UTF-8" standalone="no"?>
<!-- Created with Inkscape (http://www.inkscape.org/) -->

<svg
   version="1.1"
   id="svg251"
   width="812.76044"
   height="812.64069"
   viewBox="0 0 812.76044 812.64069"
   sodipodi:docname="ies.svg"
   inkscape:version="1.2.1 (9c6d41e410, 2022-07-14)"
   xmlns:inkscape="http://www.inkscape.org/namespaces/inkscape"
   xmlns:sodipodi="http://sodipodi.sourceforge.net/DTD/sodipodi-0.dtd"
   xmlns="http://www.w3.org/2000/svg"
   xmlns:svg="http://www.w3.org/2000/svg">
  <defs
     id="defs255">
    <clipPath
       clipPathUnits="userSpaceOnUse"
       id="clipPath271">
      <path
         d="M 0,0 H 610 V 610 H 0 Z"
         id="path269" />
    </clipPath>
    <clipPath
       clipPathUnits="userSpaceOnUse"
       id="clipPath285">
      <path
         d="M 0,0 H 610 V 610 H 0 Z"
         id="path283" />
    </clipPath>
    <clipPath
       clipPathUnits="userSpaceOnUse"
       id="clipPath299">
      <path
         d="M 0,0 H 610 V 610 H 0 Z"
         id="path297" />
    </clipPath>
    <clipPath
       clipPathUnits="userSpaceOnUse"
       id="clipPath313">
      <path
         d="M 0,0 H 610 V 610 H 0 Z"
         id="path311" />
    </clipPath>
    <clipPath
       clipPathUnits="userSpaceOnUse"
       id="clipPath327">
      <path
         d="M 0,0 H 610 V 610 H 0 Z"
         id="path325" />
    </clipPath>
  </defs>
  <sodipodi:namedview
     id="namedview253"
     pagecolor="#ffffff"
     bordercolor="#666666"
     borderopacity="1.0"
     inkscape:showpageshadow="2"
     inkscape:pageopacity="0.0"
     inkscape:pagecheckerboard="0"
     inkscape:deskcolor="#d1d1d1"
     showgrid="false"
     inkscape:zoom="1.2637812"
     inkscape:cx="406.71598"
     inkscape:cy="405.9247"
     inkscape:window-width="2560"
     inkscape:window-height="1377"
     inkscape:window-x="-8"
     inkscape:window-y="-8"
     inkscape:window-maximized="1"
     inkscape:current-layer="g259">
    <inkscape:page
       x="0"
       y="0"
       id="page257"
       width="812.76044"
       height="812.64069" />
  </sodipodi:namedview>
  <g
     id="g259"
     inkscape:groupmode="layer"
     inkscape:label="Page 1"
     transform="matrix(1.3333333,0,0,1.3333333,0,2.3649351e-5)">
    <g
       id="g261">
      <g
         id="g263">
        <g
           id="g265">
          <g
             id="g267"
             clip-path="url(#clipPath271)">
            <g
               id="g273">
              <path
                 d="M 431.746,264.809 316.352,149.609 130.18,333.367 119.223,322.262 50.813,253.906 0,304.719 l 62.227,62.226 -33.649,33.649 28.992,28.988 33.649,-33.644 49.496,49.496 -33.645,33.648 28.989,28.992 33.648,-33.648 49.5,49.496 -33.648,33.648 28.992,28.993 33.937,-33.942 -0.195,-0.199 50.613,-50.613 -96.672,-96.598 0.024,-0.023 -5.434,-5.442 102.641,-102.539 c -2.418,-4.633 -3.785,-9.898 -3.785,-15.488 0,-18.5 14.996,-33.5 33.5,-33.5 18.5,0 33.5,15 33.5,33.5 0,18.504 -15,33.5 -33.5,33.5 -3.719,0 -7.301,-0.606 -10.641,-1.723 l -86.371,86.281 102.117,102.039 -17.672,17.684 -0.023,-0.02 -50.914,50.915 39.09,39.085 127.347,-127.347 -66.074,-66.274 9.086,-9.058 -0.223,-0.227 56.844,-56.918 z"
                 style="fill:#000000;fill-opacity:1;fill-rule:evenodd;stroke:none"
                 id="path275" />
            </g>
          </g>
        </g>
      </g>
      <g
         id="g277">
        <g
           id="g279">
          <g
             id="g281"
             clip-path="url(#clipPath285)">
            <g
               id="g287">
              <path
                 d="M 68.23,236.578 304.809,0 366.988,62.18 400.516,28.652 414.527,42.664 329.633,127.555 315.277,113.199 130.066,298.41 Z"
                 style="fill:#f0ab00;fill-opacity:1;fill-rule:evenodd;stroke:none"
                 id="path289" />
            </g>
          </g>
        </g>
      </g>
      <g
         id="g291">
        <g
           id="g293">
          <g
             id="g295"
             clip-path="url(#clipPath299)">
            <g
               id="g301">
              <path
                 d="M 456.586,360.199 401.133,415.648 449.836,464.5 609.57,304.762 552.965,248.156 586.492,214.629 566.906,195.043 456.754,305.199 Z"
                 style="fill:#008fd3;fill-opacity:1;fill-rule:evenodd;stroke:none"
                 id="path303" />
            </g>
          </g>
        </g>
      </g>
      <g
         id="g305">
        <g
           id="g307">
          <g
             id="g309"
             clip-path="url(#clipPath313)">
            <g
               id="g315">
              <path
                 d="m 490.672,118.809 -84.844,84.843 50.863,50.864 0.063,50.683 110.152,-110.156 -9.457,-9.457 -33.527,33.527 -49.512,-49.511 33.528,-33.528 z"
                 style="fill:#609a7f;fill-opacity:1;fill-rule:evenodd;stroke:none"
                 id="path317" />
            </g>
          </g>
        </g>
      </g>
      <g
         id="g319">
        <g
           id="g321">
          <g
             id="g323"
             clip-path="url(#clipPath327)">
            <g
               id="g329">
              <path
                 d="m 414.527,42.664 -84.843,84.844 76.144,76.144 84.844,-84.843 -11.664,-11.664 -33.457,33.406 -49.473,-49.473 33.43,-33.433 z"
                 style="fill:#a8a340;fill-opacity:1;fill-rule:evenodd;stroke:none"
                 id="path331" />
            </g>
          </g>
        </g>
      </g>
    </g>
  </g>
</svg>
