<?xml version="1.0" encoding="UTF-8" standalone="no"?>
<svg
   width="1866.1523pt"
   height="609.48047pt"
   viewBox="0 0 1866.1523 609.48047"
   version="1.1"
   id="svg373"
   sodipodi:docname="platform-coe-white.svg"
   inkscape:version="1.2.1 (9c6d41e410, 2022-07-14)"
   xmlns:inkscape="http://www.inkscape.org/namespaces/inkscape"
   xmlns:sodipodi="http://sodipodi.sourceforge.net/DTD/sodipodi-0.dtd"
   xmlns:xlink="http://www.w3.org/1999/xlink"
   xmlns="http://www.w3.org/2000/svg"
   xmlns:svg="http://www.w3.org/2000/svg">
  <sodipodi:namedview
     id="namedview375"
     pagecolor="#ffffff"
     bordercolor="#666666"
     borderopacity="1.0"
     inkscape:showpageshadow="2"
     inkscape:pageopacity="0"
     inkscape:pagecheckerboard="false"
     inkscape:deskcolor="#d1d1d1"
     inkscape:document-units="pt"
     showgrid="false"
     inkscape:zoom="0.40853659"
     inkscape:cx="1431.9403"
     inkscape:cy="406.32836"
     inkscape:window-width="2560"
     inkscape:window-height="1377"
     inkscape:window-x="-8"
     inkscape:window-y="-8"
     inkscape:window-maximized="1"
     inkscape:current-layer="svg373" />
  <defs
     id="defs367">
    <filter
       id="filter-remove-color"
       x="0.15277778"
       y="0.15277778"
       width="0.69444446"
       height="0.69444444">
      <feColorMatrix
         color-interpolation-filters="sRGB"
         values="0 0 0 0 1 0 0 0 0 1 0 0 0 0 1 0 0 0 1 0"
         id="feColorMatrix276" />
    </filter>
    <clipPath
       id="clip-0">
      <path
         clip-rule="nonzero"
         d="M 0,0 H 2214 V 677 H 0 Z m 0,0"
         id="path279" />
    </clipPath>
    <clipPath
       id="clip-1">
      <rect
         x="0"
         y="0"
         width="2214"
         height="677"
         id="rect282" />
    </clipPath>
    <g
       id="source-398011"
       clip-path="url(#clip-1)">
      <g
         clip-path="url(#clip-0)"
         id="g287">
        <rect
           x="-487.07999"
           y="-148.94"
           width="3188.1599"
           height="974.88"
           fill="#000000"
           fill-opacity="1"
           id="rect285" />
      </g>
    </g>
    <clipPath
       id="clip-2">
      <rect
         x="0"
         y="0"
         width="2214"
         height="677"
         id="rect295" />
    </clipPath>
    <g
       id="source-398010"
       clip-path="url(#clip-2)">
      <path
         fill-rule="evenodd"
         fill="#ffffff"
         fill-opacity="1"
         d="M 465.01953,298.53906 349.625,183.33984 163.45312,367.09766 152.49609,355.99219 84.085938,287.63672 33.273438,338.44922 95.5,400.67578 61.851563,434.32422 90.84375,463.3125 l 33.64844,-33.64453 49.49609,49.49609 -33.64453,33.64844 28.98828,28.99219 33.64844,-33.64844 49.5,49.49609 -33.64844,33.64844 28.99219,28.99219 33.9375,-33.94141 -0.19531,-0.19922 50.61328,-50.61328 -96.67188,-96.59765 0.0234,-0.0234 -5.43359,-5.44141 102.64062,-102.53906 c -2.41797,-4.63281 -3.78516,-9.89844 -3.78516,-15.48828 0,-18.5 14.9961,-33.5 33.5,-33.5 18.5,0 33.5,15 33.5,33.5 0,18.5039 -15,33.5 -33.5,33.5 -3.71875,0 -7.30078,-0.60547 -10.64062,-1.72266 l -86.37109,86.28125 102.11718,102.03906 -17.67187,17.6836 -0.0234,-0.0195 -50.91406,50.91406 39.08984,39.08594 127.34766,-127.34766 -66.07422,-66.27344 9.08594,-9.05859 -0.22266,-0.22656 56.84375,-56.91797 z m 0,0"
         id="path298" />
      <path
         fill-rule="evenodd"
         fill="#f0ab00"
         fill-opacity="1"
         d="M 101.50391,270.30859 338.08203,33.730469 400.26172,95.910156 433.78906,62.382813 447.80078,76.394531 362.90625,161.28516 348.55078,146.92969 163.33984,332.14062 Z m 0,0"
         id="path300" />
      <path
         fill-rule="evenodd"
         fill="#008fd3"
         fill-opacity="1"
         d="m 489.85937,393.92969 -55.45312,55.44922 48.70312,48.85156 159.73438,-159.73828 -56.60547,-56.60547 33.52734,-33.52735 -19.58203,-19.58593 -110.15625,110.15625 z m 0,0"
         id="path302" />
      <path
         fill-rule="evenodd"
         fill="#609a7f"
         fill-opacity="1"
         d="m 523.94531,152.53906 -84.83984,84.84375 50.85937,50.86328 0.0625,50.6836 110.15625,-110.15625 -9.46093,-9.45703 -33.52735,33.52734 -49.51172,-49.51172 33.52735,-33.52734 z m 0,0"
         id="path304" />
      <path
         fill-rule="evenodd"
         fill="#a8a340"
         fill-opacity="1"
         d="m 447.80078,76.394531 -84.84375,84.843749 76.14844,76.14453 84.83984,-84.84375 L 512.28125,140.875 478.82422,174.28125 429.35156,124.80859 462.78125,91.375 Z m 0,0"
         id="path306" />
      <path
         fill-rule="nonzero"
         fill="#ffffff"
         fill-opacity="1"
         d="m 736.94922,317 v -96.23047 h 36.05469 c 5.07812,0 10.11328,0.37891 15.10937,1.14063 4.99219,0.72265 9.4375,2.26562 13.32813,4.63671 3.89453,2.32813 7.04687,5.64844 9.46093,9.96485 2.45313,4.27344 3.67969,9.96484 3.67969,17.07422 0,7.10937 -1.28906,12.80078 -3.87109,17.07422 -2.53907,4.27734 -5.82032,7.59765 -9.83985,9.96875 -4.01953,2.32812 -8.5039,3.87109 -13.45703,4.63281 -4.94922,0.71875 -9.7539,1.07812 -14.41015,1.07812 H 762.72266 V 317 Z m 25.77344,-50.46484 h 11.17187 c 3.04688,0 5.54297,-0.29688 7.48828,-0.88672 1.94922,-0.59375 3.49219,-1.41797 4.63672,-2.47657 1.18359,-1.10156 2.00781,-2.41406 2.47266,-3.9375 0.50781,-1.52343 0.76172,-3.1914 0.76172,-5.01171 0,-1.82032 -0.25391,-3.49219 -0.76172,-5.01563 -0.46485,-1.52344 -1.28907,-2.8125 -2.47266,-3.87109 -1.14453,-1.10157 -2.6875,-1.94922 -4.63672,-2.53907 -1.94531,-0.63671 -4.4414,-0.95312 -7.48828,-0.95312 h -11.17187 z m 0,0"
         id="path308" />
      <path
         fill-rule="nonzero"
         fill="#ffffff"
         fill-opacity="1"
         d="m 829.11719,317 v -96.23047 h 26.02734 v 75.28125 h 40.43359 V 317 Z m 0,0"
         id="path310" />
      <path
         fill-rule="nonzero"
         fill="#ffffff"
         fill-opacity="1"
         d="m 901.28906,317 34.08985,-96.60938 H 959.5625 L 993.64844,317 h -26.27735 l -5.83984,-17.96484 H 931.25 L 924.96875,317 Z m 36.05469,-36.37109 h 18.34766 l -8.88672,-26.66016 h -0.25391 z m 0,0"
         id="path312" />
      <path
         fill-rule="nonzero"
         fill="#ffffff"
         fill-opacity="1"
         d="m 987.93359,242.35156 v -21.58203 h 81.37891 v 21.58203 h -27.6758 V 317 h -26.0273 v -74.64844 z m 0,0"
         id="path314" />
      <path
         fill-rule="nonzero"
         fill="#ffffff"
         fill-opacity="1"
         d="m 1082.8945,317 v -96.23047 h 66.461 v 21.58203 h -40.4336 v 19.29688 h 28.1836 v 20.25 h -28.1836 V 317 Z m 0,0"
         id="path316" />
      <path
         fill-rule="nonzero"
         fill="#ffffff"
         fill-opacity="1"
         d="m 1156.9727,268.88281 c 0,-8.84375 1.3554,-16.39453 4.0625,-22.66015 2.75,-6.30469 6.3476,-11.46875 10.7929,-15.48829 4.4844,-4.01953 9.5625,-6.98046 15.2344,-8.88671 5.668,-1.90235 11.4023,-2.85547 17.1992,-2.85547 5.7969,0 11.5117,0.95312 17.1406,2.85547 5.668,1.90625 10.7266,4.86718 15.1719,8.88671 4.4844,4.01954 8.0821,9.1836 10.7891,15.48829 2.75,6.26562 4.125,13.8164 4.125,22.66015 0,8.84766 -1.375,16.42188 -4.125,22.72656 -2.707,6.26172 -6.3047,11.42579 -10.7891,15.48829 -4.4453,4.01953 -9.5039,6.98046 -15.1719,8.88671 -5.6289,1.90625 -11.3437,2.85547 -17.1406,2.85547 -5.7969,0 -11.5312,-0.94922 -17.1992,-2.85547 -5.6719,-1.90625 -10.75,-4.86718 -15.2344,-8.88671 -4.4453,-4.0625 -8.0429,-9.22657 -10.7929,-15.48829 -2.7071,-6.30468 -4.0625,-13.8789 -4.0625,-22.72656 z m 25.9609,0 c 0,8.84766 1.8437,15.91406 5.5234,21.20313 3.6836,5.28906 8.9493,7.93359 15.8047,7.93359 6.7735,0 12,-2.64453 15.6797,-7.93359 3.6836,-5.28907 5.5234,-12.35547 5.5234,-21.20313 0,-8.92578 -1.8398,-15.88672 -5.5234,-20.88281 -3.6797,-5.03516 -8.9062,-7.55469 -15.6797,-7.55469 -6.8554,0 -12.1211,2.51953 -15.8047,7.55469 -3.6797,4.99609 -5.5234,11.95703 -5.5234,20.88281 z m 0,0"
         id="path318" />
      <path
         fill-rule="nonzero"
         fill="#ffffff"
         fill-opacity="1"
         d="m 1267.2305,317 v -96.23047 h 37.5781 c 6.1797,0 11.7227,0.55078 16.6328,1.65234 4.9492,1.09766 9.1406,2.875 12.5664,5.32813 3.4297,2.45703 6.0508,5.69531 7.8711,9.71484 1.8203,3.97657 2.7305,8.86328 2.7305,14.66016 0,7.61719 -1.586,13.67187 -4.7617,18.15625 -3.1719,4.44141 -7.9141,7.74219 -14.2188,9.90234 L 1346.0039,317 h -27.5469 l -18.5976,-33.39063 H 1292.75 V 317 Z m 25.5195,-53.19531 h 11.1719 c 5.375,0 9.2656,-0.80078 11.6797,-2.41016 2.4531,-1.65234 3.6797,-4.52734 3.6797,-8.63281 0,-4.0625 -1.2266,-6.89844 -3.6797,-8.50781 -2.4141,-1.60547 -6.3047,-2.41016 -11.6797,-2.41016 H 1292.75 Z m 0,0"
         id="path320" />
      <path
         fill-rule="nonzero"
         fill="#ffffff"
         fill-opacity="1"
         d="m 1363.207,317 v -96.23047 h 34.4688 l 16.8828,65.31641 h 0.2539 l 15.2344,-65.31641 h 35.2304 V 317 h -24.8203 v -59.54297 h -0.2539 c -0.8008,4.95313 -1.6289,9.16406 -2.4726,12.63281 -0.8047,3.47266 -1.7149,7.06641 -2.7305,10.79297 L 1424.8438,317 h -22.8516 l -9.9024,-36.11719 c -0.5078,-1.90625 -1.0156,-3.68359 -1.5234,-5.33203 -0.4648,-1.65234 -0.8906,-3.38672 -1.2695,-5.20703 -0.3828,-1.82031 -0.8047,-3.85156 -1.2696,-6.09375 -0.4218,-2.28516 -0.8906,-4.97266 -1.3984,-8.0625 h -0.2539 V 317 Z m 0,0"
         id="path322" />
      <path
         fill-rule="nonzero"
         fill="#ffffff"
         fill-opacity="1"
         d="m 1520.6914,268.88281 c 0,-8.84375 1.207,-16.39453 3.6172,-22.66015 2.4141,-6.30469 5.6523,-11.46875 9.7148,-15.48829 4.1016,-4.01953 8.8868,-6.98046 14.3438,-8.88671 5.4609,-1.90235 11.2578,-2.85547 17.3945,-2.85547 6.6016,0 12.2266,0.80468 16.8828,2.41406 4.6993,1.60547 8.6328,3.78516 11.8086,6.53516 3.1719,2.71093 5.711,5.94531 7.6172,9.71484 1.9024,3.76562 3.3633,7.76172 4.3789,11.99609 l -24.5664,7.30078 c -0.6758,-2.32812 -1.4375,-4.48828 -2.2851,-6.47656 -0.8047,-2.03125 -1.8204,-3.76562 -3.0469,-5.20703 -1.1836,-1.48047 -2.6641,-2.64453 -4.4414,-3.48828 -1.7774,-0.89063 -3.9375,-1.33594 -6.4766,-1.33594 -6.4726,0 -11.2578,2.5 -14.3437,7.49219 -3.0899,4.95312 -4.6368,11.93359 -4.6368,20.94531 0,8.84766 1.6094,15.91406 4.8243,21.20313 3.2187,5.28906 8.0195,7.93359 14.4101,7.93359 5.0352,0 8.8008,-1.54297 11.3008,-4.63281 2.5391,-3.13281 4.5469,-7.70313 6.0273,-13.71094 l 24.5665,5.45703 c -1.2266,4.86719 -2.8555,9.35547 -4.8868,13.46094 -2.0312,4.10156 -4.7187,7.65625 -8.0625,10.66016 -3.3437,3.00781 -7.3828,5.35546 -12.125,7.04687 -4.6953,1.69531 -10.3437,2.53906 -16.9453,2.53906 -6.3086,0 -12.2109,-0.94922 -17.7109,-2.85547 -5.5,-1.90625 -10.2852,-4.86718 -14.3477,-8.88671 -4.0195,-4.0625 -7.1914,-9.22657 -9.5195,-15.48829 -2.3281,-6.30468 -3.4922,-13.8789 -3.4922,-22.72656 z m 0,0"
         id="path324" />
      <path
         fill-rule="nonzero"
         fill="#ffffff"
         fill-opacity="1"
         d="m 1618.1914,268.88281 c 0,-8.84375 1.3555,-16.39453 4.0625,-22.66015 2.75,-6.30469 6.3477,-11.46875 10.793,-15.48829 4.4844,-4.01953 9.5625,-6.98046 15.2344,-8.88671 5.6679,-1.90235 11.4023,-2.85547 17.1992,-2.85547 5.7968,0 11.5117,0.95312 17.1406,2.85547 5.668,1.90625 10.7266,4.86718 15.1719,8.88671 4.4843,4.01954 8.082,9.1836 10.789,15.48829 2.75,6.26562 4.125,13.8164 4.125,22.66015 0,8.84766 -1.375,16.42188 -4.125,22.72656 -2.707,6.26172 -6.3047,11.42579 -10.789,15.48829 -4.4453,4.01953 -9.5039,6.98046 -15.1719,8.88671 -5.6289,1.90625 -11.3438,2.85547 -17.1406,2.85547 -5.7969,0 -11.5313,-0.94922 -17.1992,-2.85547 -5.6719,-1.90625 -10.75,-4.86718 -15.2344,-8.88671 -4.4453,-4.0625 -8.043,-9.22657 -10.793,-15.48829 -2.707,-6.30468 -4.0625,-13.8789 -4.0625,-22.72656 z m 25.9609,0 c 0,8.84766 1.8438,15.91406 5.5235,21.20313 3.6836,5.28906 8.9492,7.93359 15.8047,7.93359 6.7734,0 12,-2.64453 15.6797,-7.93359 3.6836,-5.28907 5.5234,-12.35547 5.5234,-21.20313 0,-8.92578 -1.8398,-15.88672 -5.5234,-20.88281 -3.6797,-5.03516 -8.9063,-7.55469 -15.6797,-7.55469 -6.8555,0 -12.1211,2.51953 -15.8047,7.55469 -3.6797,4.99609 -5.5235,11.95703 -5.5235,20.88281 z m 0,0"
         id="path326" />
      <path
         fill-rule="nonzero"
         fill="#ffffff"
         fill-opacity="1"
         d="m 1728.4492,317 v -96.23047 h 68.6836 v 21.58203 h -42.6562 v 15.61719 h 30.4023 v 20.3125 h -30.4023 v 17.76953 h 44.8125 V 317 Z m 0,0"
         id="path328" />
      <path
         fill-rule="nonzero"
         fill="#ffffff"
         fill-opacity="1"
         d="M 730.55078,390.71875 V 379.67578 H 785.75 v 11.04297 H 764.08984 V 450 h -11.875 v -59.28125 z m 0,0"
         id="path330" />
      <path
         fill-rule="nonzero"
         fill="#ffffff"
         fill-opacity="1"
         d="m 797.92969,450 v -70.32422 h 45.41015 v 11.04297 h -33.53515 v 17.48828 h 24.58593 v 10.52734 h -24.58593 v 20.45704 h 35.4375 V 450 Z m 0,0"
         id="path332" />
      <path
         fill-rule="nonzero"
         fill="#ffffff"
         fill-opacity="1"
         d="m 852.27344,414.65234 c 0,-5.875 0.77343,-11.07031 2.3164,-15.58593 1.57813,-4.54688 3.74219,-8.33204 6.4961,-11.36329 2.7539,-3.0625 6.01562,-5.38281 9.78906,-6.95703 3.76953,-1.57812 7.86719,-2.36718 12.28906,-2.36718 4.05469,0 7.60938,0.54296 10.67188,1.625 3.08984,1.05078 5.71875,2.55078 7.88281,4.49609 2.19922,1.91797 4.00781,4.20703 5.42969,6.86719 1.42187,2.66015 2.51953,5.61328 3.29297,8.85937 l -11.32032,3.19922 c -0.71093,-2.31641 -1.5,-4.34375 -2.36328,-6.07422 -0.83594,-1.76172 -1.88672,-3.23047 -3.15625,-4.40625 -1.26562,-1.17578 -2.75,-2.05859 -4.45312,-2.64453 -1.69922,-0.61719 -3.72657,-0.92969 -6.07422,-0.92969 -5.96875,0 -10.60938,2.19532 -13.91797,6.58985 -3.27734,4.35937 -4.91797,10.55859 -4.91797,18.60156 0,8.41016 1.67188,14.84375 5.01172,19.29687 3.37109,4.42188 8.03906,6.63282 14.00781,6.63282 4.54688,0 8.16406,-1.17578 10.85547,-3.52735 2.69141,-2.3789 4.69922,-6.23047 6.03125,-11.55078 l 11.31641,2.55078 c -0.86328,3.4961 -2.07032,6.67969 -3.61719,9.5586 -1.51563,2.875 -3.43359,5.33203 -5.75391,7.375 -2.28515,2.00781 -5.00781,3.58593 -8.16406,4.73047 -3.12109,1.14453 -6.70703,1.71484 -10.76172,1.71484 -4.51172,0 -8.67187,-0.77344 -12.47656,-2.31641 -3.77344,-1.57812 -7.01953,-3.89843 -9.74219,-6.96093 -2.71875,-3.0586 -4.85547,-6.86329 -6.39844,-11.41016 -1.51562,-4.57813 -2.27343,-9.91016 -2.27343,-16.00391 z m 0,0"
         id="path334" />
      <path
         fill-rule="nonzero"
         fill="#ffffff"
         fill-opacity="1"
         d="m 925.44922,450 v -70.32422 h 11.875 v 28.06641 h 31.91406 v -28.06641 h 11.875 V 450 h -11.875 V 418.73437 H 937.32422 V 450 Z m 0,0"
         id="path336" />
      <path
         fill-rule="nonzero"
         fill="#ffffff"
         fill-opacity="1"
         d="m 998.71875,450 v -70.32422 h 12.05855 l 33.2618,50.19141 h 0.1836 v -50.19141 h 11.039 V 450 h -10.8515 l -34.4688,-51.21094 h -0.1836 V 450 Z m 0,0"
         id="path338" />
      <path
         fill-rule="nonzero"
         fill="#ffffff"
         fill-opacity="1"
         d="m 1069.4805,414.83984 c 0,-5.875 0.8203,-11.08593 2.4609,-15.63281 1.668,-4.57812 3.9258,-8.39453 6.7695,-11.45703 2.8477,-3.09375 6.2032,-5.42969 10.0664,-7.00391 3.8672,-1.57812 8.043,-2.36718 12.5235,-2.36718 4.4531,0 8.6133,0.78906 12.4805,2.36718 3.8632,1.57422 7.2187,3.91016 10.0664,7.00391 2.8437,3.0625 5.0703,6.87891 6.6796,11.45703 1.6055,4.54688 2.4102,9.75781 2.4102,15.63281 0,5.90625 -0.8047,11.14844 -2.4102,15.72266 -1.6093,4.54687 -3.8359,8.35156 -6.6796,11.41406 -2.8477,3.0586 -6.2032,5.39453 -10.0664,7.00391 -3.8672,1.57812 -8.0274,2.36328 -12.4805,2.36328 -4.4805,0 -8.6563,-0.78516 -12.5235,-2.36328 -3.8632,-1.60938 -7.2187,-3.94531 -10.0664,-7.00391 -2.8437,-3.0625 -5.1015,-6.86719 -6.7695,-11.41406 -1.6406,-4.57422 -2.4609,-9.81641 -2.4609,-15.72266 z m 11.9687,0 c 0,8.31641 1.8086,14.6875 5.4258,19.10938 3.6211,4.42187 8.4297,6.63281 14.4258,6.63281 2.9414,0 5.6133,-0.55469 8.0273,-1.66797 2.4414,-1.14453 4.5157,-2.8164 6.2149,-5.01172 1.7304,-2.19531 3.0625,-4.88281 3.9883,-8.07031 0.9609,-3.21484 1.4375,-6.87891 1.4375,-10.99219 0,-4.11328 -0.4766,-7.76172 -1.4375,-10.94922 -0.9258,-3.21484 -2.2579,-5.89062 -3.9883,-8.02343 -1.6992,-2.16407 -3.7735,-3.80469 -6.2149,-4.91797 -2.414,-1.11328 -5.0859,-1.66797 -8.0273,-1.66797 -5.9961,0 -10.8047,2.19531 -14.4258,6.58594 -3.6172,4.35937 -5.4258,10.68359 -5.4258,18.97265 z m 0,0"
         id="path340" />
      <path
         fill-rule="nonzero"
         fill="#ffffff"
         fill-opacity="1"
         d="m 1147.2031,450 v -70.32422 h 11.875 v 59.51563 h 32.3789 V 450 Z m 0,0"
         id="path342" />
      <path
         fill-rule="nonzero"
         fill="#ffffff"
         fill-opacity="1"
         d="m 1197.4648,414.83984 c 0,-5.875 0.8204,-11.08593 2.4571,-15.63281 1.6719,-4.57812 3.9297,-8.39453 6.7734,-11.45703 2.8438,-3.09375 6.1992,-5.42969 10.0664,-7.00391 3.8672,-1.57812 8.0391,-2.36718 12.5235,-2.36718 4.4531,0 8.6132,0.78906 12.4804,2.36718 3.8633,1.57422 7.2188,3.91016 10.0625,7.00391 2.8477,3.0625 5.0742,6.87891 6.6797,11.45703 1.6094,4.54688 2.4141,9.75781 2.4141,15.63281 0,5.90625 -0.8047,11.14844 -2.4141,15.72266 -1.6055,4.54687 -3.832,8.35156 -6.6797,11.41406 -2.8437,3.0586 -6.1992,5.39453 -10.0625,7.00391 -3.8672,1.57812 -8.0273,2.36328 -12.4804,2.36328 -4.4844,0 -8.6563,-0.78516 -12.5235,-2.36328 -3.8672,-1.60938 -7.2226,-3.94531 -10.0664,-7.00391 -2.8437,-3.0625 -5.1015,-6.86719 -6.7734,-11.41406 -1.6367,-4.57422 -2.4571,-9.81641 -2.4571,-15.72266 z m 11.9688,0 c 0,8.31641 1.8086,14.6875 5.4258,19.10938 3.6172,4.42187 8.4258,6.63281 14.4258,6.63281 2.9375,0 5.6132,-0.55469 8.0273,-1.66797 2.4414,-1.14453 4.5117,-2.8164 6.2148,-5.01172 1.7305,-2.19531 3.0625,-4.88281 3.9883,-8.07031 0.9571,-3.21484 1.4375,-6.87891 1.4375,-10.99219 0,-4.11328 -0.4804,-7.76172 -1.4375,-10.94922 -0.9258,-3.21484 -2.2578,-5.89062 -3.9883,-8.02343 -1.7031,-2.16407 -3.7734,-3.80469 -6.2148,-4.91797 -2.4141,-1.11328 -5.0898,-1.66797 -8.0273,-1.66797 -6,0 -10.8086,2.19531 -14.4258,6.58594 -3.6172,4.35937 -5.4258,10.68359 -5.4258,18.97265 z m 0,0"
         id="path344" />
      <path
         fill-rule="nonzero"
         fill="#ffffff"
         fill-opacity="1"
         d="m 1271.7539,414.5625 c 0,-5.62891 0.7266,-10.67188 2.1797,-15.125 1.4844,-4.48438 3.5898,-8.28516 6.3086,-11.41016 2.7226,-3.15234 5.9687,-5.55078 9.7422,-7.1914 3.8047,-1.63672 8.0547,-2.45703 12.7578,-2.45703 6.6484,0 12.3203,1.69921 17.0234,5.10156 4.7305,3.37109 8.1485,9.04687 10.25,17.02344 l -11.039,2.92187 c -1.5782,-5.25391 -3.6485,-8.90625 -6.2149,-10.94531 -2.5703,-2.07031 -5.9375,-3.10938 -10.1133,-3.10938 -2.1054,0 -4.2695,0.3711 -6.4961,1.11328 -2.1953,0.71094 -4.2343,2.02735 -6.121,3.94532 -1.8555,1.88672 -3.3711,4.4375 -4.5469,7.65234 -1.1758,3.1875 -1.7617,7.25391 -1.7617,12.19922 0,4.94922 0.539,9.10937 1.6211,12.48047 1.0859,3.33984 2.5234,6.04297 4.3164,8.11719 1.8242,2.03906 3.8945,3.52343 6.2148,4.45312 2.3516,0.89453 4.7617,1.34375 7.2383,1.34375 4.6992,0 8.5195,-1.34375 11.457,-4.03516 2.9375,-2.6914 4.5899,-6.63281 4.961,-11.82812 h -14.1485 v -9.60156 h 25.5625 V 450 h -9.789 v -10.16016 h -0.1875 c -0.5547,1.26953 -1.3594,2.58203 -2.4102,3.94532 -1.0508,1.35937 -2.3672,2.59765 -3.9414,3.71093 -1.5781,1.11328 -3.4336,2.02344 -5.5664,2.73438 -2.1055,0.74219 -4.5313,1.11328 -7.2852,1.11328 -5.039,0 -9.4297,-0.89453 -13.1718,-2.6875 -3.7422,-1.82422 -6.8672,-4.36328 -9.3711,-7.60938 -2.5039,-3.27734 -4.375,-7.16015 -5.6133,-11.64062 -1.2383,-4.51563 -1.8555,-9.46484 -1.8555,-14.84375 z m 0,0"
         id="path346" />
      <path
         fill-rule="nonzero"
         fill="#ffffff"
         fill-opacity="1"
         d="m 1337.7422,379.67578 h 12.5234 l 17.5782,29.96875 17.4882,-29.96875 h 12.3399 l -24.0274,40.03516 V 450 h -11.9687 v -30.28906 z m 0,0"
         id="path348" />
      <path
         fill-rule="nonzero"
         fill="#ffffff"
         fill-opacity="1"
         d="m 1426.7109,433.48437 9.418,-4.96093 c 4.1133,8.16406 10.5742,12.24609 19.3906,12.24609 4.2969,0 7.7618,-0.71094 10.3907,-2.13281 2.6289,-1.42578 3.9414,-3.74219 3.9414,-6.96094 0,-1.51562 -0.293,-2.84375 -0.8828,-3.98828 -0.5547,-1.14453 -1.4688,-2.19531 -2.7344,-3.15234 -1.2696,-0.96094 -2.9219,-1.83985 -4.9649,-2.64454 -2.0078,-0.83593 -4.4687,-1.70312 -7.375,-2.59765 -3.4336,-0.99219 -6.6328,-2.01172 -9.6015,-3.0625 -2.9688,-1.05078 -5.5664,-2.35156 -7.793,-3.89844 -2.2266,-1.54297 -3.9727,-3.44531 -5.2422,-5.70312 -1.2383,-2.25782 -1.8555,-5.05469 -1.8555,-8.39454 0,-2.96875 0.5743,-5.67578 1.7149,-8.12109 1.1758,-2.44141 2.8164,-4.52734 4.918,-6.26172 2.1328,-1.76172 4.6718,-3.10547 7.6093,-4.03515 2.9688,-0.95704 6.2305,-1.4375 9.7852,-1.4375 3.4648,0 6.5742,0.40234 9.3242,1.20703 2.7539,0.77343 5.2109,1.85547 7.375,3.24609 2.168,1.39063 4.0352,3 5.6133,4.82422 1.5781,1.79297 2.9062,3.72656 3.9883,5.79687 l -8.625,5.98438 c -2.1055,-3.52344 -4.6563,-6.10547 -7.6563,-7.74609 -2.9687,-1.66797 -6.3398,-2.50391 -10.1094,-2.50391 -3.9296,0 -6.9609,0.67969 -9.0937,2.03906 -2.1328,1.36328 -3.1992,3.33985 -3.1992,5.9375 0,1.67188 0.3086,3.07813 0.9258,4.22266 0.6484,1.11328 1.6562,2.13281 3.0156,3.0625 1.3594,0.92578 3.0937,1.77734 5.1953,2.55078 2.1016,0.74219 4.5781,1.51562 7.4219,2.32031 3.2773,0.95703 6.3711,2.00781 9.2773,3.15235 2.9375,1.14453 5.4883,2.51953 7.6524,4.1289 2.1992,1.60938 3.914,3.55469 5.1523,5.84375 1.2344,2.28906 1.8555,5.07422 1.8555,8.35156 0,2.84375 -0.6055,5.51954 -1.8125,8.02344 -1.2032,2.50391 -2.9375,4.69922 -5.1953,6.58594 -2.2266,1.85547 -4.9922,3.30859 -8.3008,4.36328 -3.2774,1.05078 -7.0196,1.57422 -11.2266,1.57422 -6.957,0 -12.8633,-1.63672 -17.7187,-4.91406 -4.8243,-3.3086 -8.3516,-7.625 -10.5782,-12.94532 z m 0,0"
         id="path350" />
      <path
         fill-rule="nonzero"
         fill="#ffffff"
         fill-opacity="1"
         d="m 1496.0859,450 v -70.32422 h 45.4102 v 11.04297 h -33.5352 v 17.48828 h 24.5821 v 10.52734 h -24.5821 v 20.45704 h 35.4375 V 450 Z m 0,0"
         id="path352" />
      <path
         fill-rule="nonzero"
         fill="#ffffff"
         fill-opacity="1"
         d="m 1556.7383,450 v -70.32422 h 25.1875 c 8.4101,0 14.9023,1.71875 19.4805,5.15234 4.6093,3.42969 6.914,8.75 6.914,15.95704 0,5.625 -1.3633,10.0625 -4.082,13.3125 -2.7227,3.21484 -6.5586,5.42578 -11.5039,6.63281 L 1609.293,450 h -12.7578 l -15.7696,-27.73828 h -12.3398 V 450 Z m 11.6875,-38.08203 h 13.0351 c 4.918,0 8.6758,-0.75781 11.2735,-2.27344 2.5976,-1.54687 3.8945,-4.40625 3.8945,-8.58203 0,-4.05078 -1.2851,-6.82031 -3.8516,-8.30469 -2.5664,-1.48437 -6.3828,-2.22656 -11.457,-2.22656 h -12.8945 z m 0,0"
         id="path354" />
      <path
         fill-rule="nonzero"
         fill="#ffffff"
         fill-opacity="1"
         d="m 1616.043,379.67578 h 12.0625 l 18.1367,54.83203 h 0.2305 l 18.414,-54.83203 h 11.2266 l -24.4453,70.60156 h -11.1797 z m 0,0"
         id="path356" />
      <path
         fill-rule="nonzero"
         fill="#ffffff"
         fill-opacity="1"
         d="m 1688.8945,450 v -70.32422 h 11.9688 V 450 Z m 0,0"
         id="path358" />
      <path
         fill-rule="nonzero"
         fill="#ffffff"
         fill-opacity="1"
         d="m 1715.8711,414.65234 c 0,-5.875 0.7734,-11.07031 2.3164,-15.58593 1.5781,-4.54688 3.7422,-8.33204 6.4961,-11.36329 2.75,-3.0625 6.0156,-5.38281 9.7852,-6.95703 3.7734,-1.57812 7.871,-2.36718 12.2929,-2.36718 4.0508,0 7.6094,0.54296 10.6719,1.625 3.0898,1.05078 5.7187,2.55078 7.8828,4.49609 2.1953,1.91797 4.0078,4.20703 5.4297,6.86719 1.4219,2.66015 2.5195,5.61328 3.293,8.85937 l -11.3203,3.19922 c -0.711,-2.31641 -1.5,-4.34375 -2.3633,-6.07422 -0.836,-1.76172 -1.8867,-3.23047 -3.1563,-4.40625 -1.2656,-1.17578 -2.75,-2.05859 -4.4531,-2.64453 -1.6992,-0.61719 -3.7266,-0.92969 -6.0742,-0.92969 -5.9688,0 -10.6094,2.19532 -13.918,6.58985 -3.2773,4.35937 -4.918,10.55859 -4.918,18.60156 0,8.41016 1.6719,14.84375 5.0118,19.29687 3.3711,4.42188 8.039,6.63282 14.0078,6.63282 4.5468,0 8.164,-1.17578 10.8554,-3.52735 2.6914,-2.3789 4.6993,-6.23047 6.0313,-11.55078 l 11.3164,2.55078 c -0.8672,3.4961 -2.0703,6.67969 -3.6172,9.5586 -1.5156,2.875 -3.4336,5.33203 -5.7539,7.375 -2.2891,2.00781 -5.0078,3.58593 -8.1641,4.73047 -3.1211,1.14453 -6.7109,1.71484 -10.7617,1.71484 -4.5117,0 -8.6719,-0.77344 -12.4765,-2.31641 -3.7735,-1.57812 -7.0196,-3.89843 -9.7422,-6.96093 -2.7188,-3.0586 -4.8555,-6.86329 -6.4024,-11.41016 -1.5117,-4.57813 -2.2695,-9.91016 -2.2695,-16.00391 z m 0,0"
         id="path360" />
      <path
         fill-rule="nonzero"
         fill="#ffffff"
         fill-opacity="1"
         d="m 1789.0469,450 v -70.32422 h 45.4101 v 11.04297 h -33.5351 v 17.48828 h 24.582 v 10.52734 h -24.582 v 20.45704 h 35.4375 V 450 Z m 0,0"
         id="path362" />
      <path
         fill-rule="nonzero"
         fill="#ffffff"
         fill-opacity="1"
         d="m 1844.5938,433.48437 9.4179,-4.96093 c 4.1133,8.16406 10.5742,12.24609 19.3906,12.24609 4.2969,0 7.7618,-0.71094 10.3907,-2.13281 2.6289,-1.42578 3.9414,-3.74219 3.9414,-6.96094 0,-1.51562 -0.293,-2.84375 -0.8828,-3.98828 -0.5547,-1.14453 -1.4688,-2.19531 -2.7344,-3.15234 -1.2695,-0.96094 -2.9219,-1.83985 -4.9649,-2.64454 -2.0078,-0.83593 -4.4687,-1.70312 -7.375,-2.59765 -3.4335,-0.99219 -6.6328,-2.01172 -9.6015,-3.0625 -2.9688,-1.05078 -5.5664,-2.35156 -7.793,-3.89844 -2.2265,-1.54297 -3.9726,-3.44531 -5.2422,-5.70312 -1.2383,-2.25782 -1.8554,-5.05469 -1.8554,-8.39454 0,-2.96875 0.5742,-5.67578 1.7148,-8.12109 1.1758,-2.44141 2.8164,-4.52734 4.918,-6.26172 2.1328,-1.76172 4.6718,-3.10547 7.6093,-4.03515 2.9688,-0.95704 6.2305,-1.4375 9.7852,-1.4375 3.4648,0 6.5742,0.40234 9.3242,1.20703 2.7539,0.77343 5.211,1.85547 7.375,3.24609 2.1641,1.39063 4.0352,3 5.6133,4.82422 1.5781,1.79297 2.9063,3.72656 3.9883,5.79687 l -8.625,5.98438 c -2.1055,-3.52344 -4.6563,-6.10547 -7.6563,-7.74609 -2.9687,-1.66797 -6.3398,-2.50391 -10.1093,-2.50391 -3.9297,0 -6.961,0.67969 -9.0938,2.03906 -2.1328,1.36328 -3.1992,3.33985 -3.1992,5.9375 0,1.67188 0.3086,3.07813 0.9258,4.22266 0.6484,1.11328 1.6562,2.13281 3.0156,3.0625 1.3594,0.92578 3.0937,1.77734 5.1953,2.55078 2.1016,0.74219 4.5781,1.51562 7.4219,2.32031 3.2773,0.95703 6.3711,2.00781 9.2773,3.15235 2.9375,1.14453 5.4883,2.51953 7.6524,4.1289 2.1992,1.60938 3.914,3.55469 5.1523,5.84375 1.2344,2.28906 1.8555,5.07422 1.8555,8.35156 0,2.84375 -0.6055,5.51954 -1.8125,8.02344 -1.2031,2.50391 -2.9375,4.69922 -5.1953,6.58594 -2.2266,1.85547 -4.9922,3.30859 -8.3008,4.36328 -3.2774,1.05078 -7.0195,1.57422 -11.2266,1.57422 -6.957,0 -12.8633,-1.63672 -17.7187,-4.91406 -4.8242,-3.3086 -8.3516,-7.625 -10.5781,-12.94532 z m 0,0"
         id="path364" />
    </g>
    <mask
       maskUnits="userSpaceOnUse"
       id="mask384">
      <g
         id="g390"
         transform="translate(33.273438,33.730469)">
        <g
           filter="url(#filter-remove-color)"
           id="g388"
           transform="translate(-33.273438,-33.730469)">
          <use
             xlink:href="#source-398011"
             id="use386" />
        </g>
      </g>
    </mask>
  </defs>
  <use
     xlink:href="#source-398010"
     id="use369"
     transform="translate(-33.273438,-33.730469)"
     mask="url(#mask384)" />
</svg>
